<svg width="58" height="27" viewBox="0 0 58 27" fill="none" xmlns="http://www.w3.org/2000/svg">
<path d="M5.98242 7.5957V11.6035H12.2227C12.5039 11.6035 12.7148 11.6504 12.8555 11.7441C13.1602 11.9551 13.4766 12.207 13.8047 12.5C14.1328 12.793 14.4785 13.1445 14.8418 13.5547C14.959 13.707 15.0176 13.8301 15.0176 13.9238C15.0176 14.0293 14.959 14.1465 14.8418 14.2754C14.4785 14.6855 14.1328 15.0371 13.8047 15.3301C13.4766 15.623 13.1602 15.875 12.8555 16.0859C12.6914 16.1797 12.4805 16.2266 12.2227 16.2266H5.98242V25.0684C5.98242 25.4199 5.90625 25.666 5.75391 25.8066C5.61328 25.9355 5.36719 26 5.01562 26H1.27148C0.919922 26 0.667969 25.9355 0.515625 25.8066C0.375 25.666 0.304688 25.4199 0.304688 25.0684V5.50391C0.304688 4.33203 0.410156 3.40625 0.621094 2.72656C0.84375 2.03516 1.26562 1.54297 1.88672 1.25C2.51953 0.945313 3.43945 0.792969 4.64648 0.792969H12.9434C13.2246 0.792969 13.4355 0.839844 13.5762 0.933594C13.8809 1.14453 14.1973 1.39648 14.5254 1.68945C14.8535 1.98242 15.1992 2.33398 15.5625 2.74414C15.6797 2.89648 15.7383 3.01953 15.7383 3.11328C15.7383 3.21875 15.6797 3.33594 15.5625 3.46484C15.1992 3.875 14.8535 4.22656 14.5254 4.51953C14.1973 4.8125 13.8809 5.06445 13.5762 5.27539C13.4121 5.36914 13.2012 5.41602 12.9434 5.41602H7.98633C7.21289 5.41602 6.68555 5.58008 6.4043 5.9082C6.12305 6.23633 5.98242 6.79883 5.98242 7.5957ZM48.4688 26.4219C46.9805 26.4219 45.7441 26.2871 44.7598 26.0176C43.7871 25.748 43.002 25.4141 42.4043 25.0156C41.8184 24.6055 41.3672 24.2012 41.0508 23.8027C40.9453 23.6504 40.8516 23.5039 40.7695 23.3633C40.6875 23.2227 40.6289 23.0645 40.5938 22.8887C40.5469 22.6543 40.5 22.3496 40.4531 21.9746C40.4062 21.5879 40.4004 21.1426 40.4355 20.6387C40.4473 20.4277 40.4883 20.2812 40.5586 20.1992C40.6406 20.1055 40.7754 20.0352 40.9629 19.9883C41.3027 19.9062 41.7422 19.8359 42.2812 19.7773C42.832 19.707 43.2246 19.6719 43.459 19.6719C43.7051 19.6719 43.9043 19.7188 44.0566 19.8125C44.209 19.9062 44.3906 20.0645 44.6016 20.2871C44.8359 20.5332 45.2402 20.8496 45.8145 21.2363C46.3887 21.6113 47.2734 21.7988 48.4688 21.7988C49.6172 21.7988 50.4844 21.5586 51.0703 21.0781C51.6562 20.5977 51.9492 19.9297 51.9492 19.0742C51.9492 18.6172 51.8086 18.1895 51.5273 17.791C51.2578 17.3809 50.7598 16.9766 50.0332 16.5781C49.3066 16.168 48.2695 15.7402 46.9219 15.2949C44.6953 14.5449 43.0898 13.6133 42.1055 12.5C41.1211 11.3867 40.6289 9.83984 40.6289 7.85938C40.6289 6.21875 41.0273 4.84766 41.8242 3.74609C42.6211 2.64453 43.7227 1.8125 45.1289 1.25C46.5352 0.6875 48.1582 0.40625 49.998 0.40625C51.416 0.40625 52.5879 0.576172 53.5137 0.916016C54.4512 1.24414 55.1777 1.61914 55.6934 2.04102C56.209 2.45117 56.543 2.78516 56.6953 3.04297C56.7891 3.19531 56.8477 3.3125 56.8711 3.39453C56.9062 3.46484 56.9297 3.56445 56.9414 3.69336C56.9766 4.05664 56.9883 4.46094 56.9766 4.90625C56.9648 5.35156 56.9238 5.85547 56.8535 6.41797C56.8184 6.60547 56.7539 6.73438 56.6602 6.80469C56.5781 6.86328 56.4492 6.89258 56.2734 6.89258C55.1367 6.91602 54.2578 6.85742 53.6367 6.7168C53.3906 6.6582 53.2266 6.59961 53.1445 6.54102C53.0625 6.48242 52.957 6.38867 52.8281 6.25977C52.6406 6.03711 52.3418 5.7793 51.9316 5.48633C51.5332 5.18164 50.8887 5.0293 49.998 5.0293C48.7676 5.0293 47.8945 5.31055 47.3789 5.87305C46.8633 6.42383 46.6055 7.04492 46.6055 7.73633C46.6055 8.55664 46.9863 9.20117 47.748 9.66992C48.5098 10.127 49.7109 10.6484 51.3516 11.2344C52.7227 11.7148 53.9004 12.2363 54.8848 12.7988C55.8691 13.3613 56.6191 14.082 57.1348 14.9609C57.6621 15.8398 57.9258 17 57.9258 18.4414C57.9258 20.2344 57.5098 21.7227 56.6777 22.9062C55.8574 24.0898 54.7324 24.9746 53.3027 25.5605C51.8848 26.1348 50.2734 26.4219 48.4688 26.4219Z" fill="white"/>
<path d="M28.9043 17.5801C28.5996 17.5801 28.3418 17.5039 28.1309 17.3516C27.9082 17.1992 27.6445 16.9824 27.3398 16.7012C27.0352 16.4199 26.6953 16.0742 26.3203 15.6641C26.1797 15.5 26.1094 15.3535 26.1094 15.2246C26.1094 15.0957 26.1797 14.9492 26.3203 14.7852C27.0469 13.9648 27.709 13.3613 28.3066 12.9746C28.4473 12.8809 28.6465 12.834 28.9043 12.834C29.7012 12.834 30.3867 12.5352 30.9609 11.9375C31.5469 11.3398 31.8281 10.373 31.8047 9.03711C31.793 7.5957 31.4355 6.58789 30.7324 6.01367C30.041 5.43945 29.0918 5.15234 27.8848 5.15234H27.041C26.2676 5.15234 25.7402 5.31641 25.459 5.64453C25.1777 5.97266 25.0371 6.53516 25.0371 7.33203V25.0684C25.0371 25.4199 24.9609 25.666 24.8086 25.8066C24.668 25.9355 24.4219 26 24.0703 26H20.3262C19.9746 26 19.7227 25.9355 19.5703 25.8066C19.4297 25.666 19.3594 25.4199 19.3594 25.0684V5.50391C19.3594 4.33203 19.4648 3.40625 19.6758 2.72656C19.8984 2.03516 20.3203 1.54297 20.9414 1.25C21.5742 0.945313 22.4941 0.792969 23.7012 0.792969H27.8848C31.248 0.792969 33.7383 1.45508 35.3555 2.7793C36.9727 4.0918 37.7812 6.10742 37.7812 8.82617C37.7812 10.8652 37.3535 12.5293 36.498 13.8184C35.6543 15.1074 34.5527 16.0566 33.1934 16.666C31.8457 17.2754 30.416 17.5801 28.9043 17.5801Z" fill="#FF0000"/>
</svg>
