<svg width="39" height="39" viewBox="0 0 39 39" fill="none" xmlns="http://www.w3.org/2000/svg">
<g clip-path="url(#clip0_25_187)">
<path d="M30.0625 39H8.93747C4.00367 38.9946 0.0054082 34.9963 0 30.0625V8.93747C0.0054082 4.00367 4.00367 0.0054082 8.93747 0H30.0624C34.9963 0.0054082 38.9946 4.00367 39 8.93747V30.0624C38.9946 34.9963 34.9963 38.9946 30.0625 39ZM8.93747 4.875C6.69383 4.875 4.875 6.69383 4.875 8.93747V30.0624C4.875 32.3062 6.69383 34.125 8.93747 34.125H30.0624C32.3062 34.125 34.125 32.3062 34.125 30.0625V8.93747C34.125 6.69383 32.3062 4.875 30.0625 4.875H8.93747Z" fill="#FF0000"/>
<path d="M15.709 28.9039C14.6836 28.9046 13.7005 28.495 12.979 27.7664L8.12512 22.9207C7.17289 21.969 7.17244 20.4257 8.12405 19.4735C8.12443 19.4731 8.12481 19.4727 8.12512 19.4724C9.07696 18.5208 10.6199 18.5208 11.5717 19.4724L15.709 23.608L27.4285 11.8885C28.3804 10.9369 29.9233 10.9369 30.8751 11.8885C31.8274 12.8401 31.8278 14.3834 30.8762 15.3356C30.8758 15.336 30.8754 15.3364 30.8751 15.3367L18.4374 27.7745C17.7152 28.5 16.7328 28.9067 15.709 28.9039Z" fill="#FF0000"/>
</g>
<defs>
<clipPath id="clip0_25_187">
<rect width="39" height="39" fill="white"/>
</clipPath>
</defs>
</svg>
