<svg width="40" height="40" viewBox="0 0 40 40" fill="none" xmlns="http://www.w3.org/2000/svg">
<g clip-path="url(#clip0_25_185)">
<path d="M18.7335 40C18.1875 39.998 17.6484 39.8774 17.1535 39.6466C16.3452 39.2867 15.696 38.6441 15.3278 37.8395C14.9595 37.035 14.8976 36.1237 15.1535 35.2766L17.7552 26.6666H11.6252C10.8442 26.6676 10.0738 26.4855 9.37585 26.1351C8.67787 25.7847 8.07168 25.2757 7.60586 24.6488C7.14004 24.022 6.82755 23.2947 6.69343 22.5253C6.5593 21.7559 6.60728 20.9658 6.8335 20.2183L11.8735 3.55163C12.1807 2.52076 12.814 1.61734 13.6783 0.976945C14.5425 0.336553 15.5912 -0.00625812 16.6668 -3.89214e-05H22.8218C23.5214 0.000546316 24.2105 0.170504 24.8301 0.495311C25.4497 0.820117 25.9815 1.29011 26.3799 1.86513C26.7784 2.44016 27.0317 3.1031 27.1183 3.79732C27.2048 4.49154 27.122 5.19639 26.8768 5.85163L24.0718 13.3333H28.3335C29.2419 13.3332 30.1332 13.5806 30.9116 14.049C31.69 14.5173 32.3261 15.1888 32.7516 15.9915C33.177 16.7941 33.3758 17.6975 33.3265 18.6046C33.2772 19.5116 32.9818 20.3882 32.4718 21.14L21.8052 38.3066C21.4754 38.823 21.0215 39.2486 20.4849 39.5444C19.9484 39.8402 19.3462 39.9968 18.7335 40ZM16.6668 3.33329C16.3089 3.33295 15.9604 3.44783 15.6728 3.66095C15.3853 3.87406 15.174 4.17409 15.0702 4.51663L10.0302 21.1833C9.95471 21.4323 9.93861 21.6956 9.98315 21.9519C10.0277 22.2083 10.1316 22.4507 10.2867 22.6596C10.4417 22.8686 10.6435 23.0384 10.8759 23.1554C11.1084 23.2724 11.365 23.3333 11.6252 23.3333H20.0002C20.2604 23.3333 20.517 23.3942 20.7494 23.5112C20.9818 23.6282 21.1836 23.798 21.3387 24.0069C21.4937 24.2159 21.5977 24.4583 21.6422 24.7147C21.6867 24.971 21.6706 25.2343 21.5952 25.4833L18.3502 36.22C18.3352 36.2595 18.3285 36.3017 18.3307 36.3439C18.3329 36.3861 18.3438 36.4274 18.3627 36.4651C18.3817 36.5029 18.4083 36.5363 18.4408 36.5632C18.4734 36.5902 18.5112 36.6101 18.5518 36.6216C18.5887 36.6452 18.6301 36.6609 18.6733 36.6675C18.7166 36.6742 18.7608 36.6717 18.803 36.6602C18.8452 36.6488 18.8846 36.6286 18.9186 36.601C18.9525 36.5734 18.9803 36.539 19.0002 36.5L29.6668 19.3333C29.8534 19.0803 29.9645 18.7797 29.9876 18.4662C30.0106 18.1527 29.9444 17.8391 29.7968 17.5616C29.6601 17.2913 29.4507 17.0644 29.1923 16.9063C28.9338 16.7482 28.6365 16.6653 28.3335 16.6666H21.6668C21.3975 16.6668 21.1321 16.6017 20.8934 16.4768C20.6547 16.352 20.4498 16.1712 20.2963 15.9498C20.1428 15.7285 20.0452 15.4732 20.0119 15.2059C19.9786 14.9386 20.0106 14.6672 20.1052 14.415L23.7552 4.68163C23.8113 4.53072 23.8301 4.36851 23.81 4.20877C23.79 4.04903 23.7317 3.8965 23.64 3.76413C23.5484 3.63176 23.4262 3.52347 23.2837 3.44846C23.1413 3.37345 22.9828 3.33394 22.8218 3.33329H16.6668Z" fill="#FF0000"/>
</g>
<defs>
<clipPath id="clip0_25_185">
<rect width="40" height="40" fill="white"/>
</clipPath>
</defs>
</svg>
