<?xml version="1.0" standalone="no"?>
<!DOCTYPE svg PUBLIC "-//W3C//DTD SVG 20010904//EN"
 "http://www.w3.org/TR/2001/REC-SVG-20010904/DTD/svg10.dtd">
<svg version="1.0" xmlns="http://www.w3.org/2000/svg"
 width="1060.000000pt" height="530.000000pt" viewBox="0 0 1060.000000 530.000000"
 preserveAspectRatio="xMidYMid meet">

<g transform="translate(0.000000,530.000000) scale(0.100000,-0.100000)"
fill="#000000" stroke="none">
<path d="M9235 3686 c-594 -183 -1116 -344 -1160 -358 -44 -14 -210 -65 -369
-113 l-288 -89 303 -152 304 -152 104 -283 c57 -156 109 -294 115 -306 11 -22
19 -15 175 141 l164 164 359 -179 c197 -98 362 -179 367 -179 5 0 41 57 79
127 104 192 891 1622 919 1671 14 23 21 42 16 41 -4 0 -494 -150 -1088 -333z"/>
<path d="M4180 3860 c0 -6 21 -8 58 -4 77 9 78 14 4 14 -35 0 -62 -4 -62 -10z"/>
<path d="M4560 3822 c0 -7 28 -19 115 -51 6 -2 6 1 -1 8 -14 16 -114 53 -114
43z"/>
<path d="M3868 3763 c-27 -14 -48 -30 -48 -35 0 -5 22 3 50 19 27 15 50 31 50
36 0 10 1 10 -52 -20z"/>
<path d="M4890 3617 c0 -12 64 -96 73 -97 4 0 3 8 -3 18 -15 25 -70 87 -70 79z"/>
<path d="M3595 3489 c-15 -28 -24 -54 -21 -57 7 -7 7 -7 39 50 14 26 21 50 17
53 -5 3 -21 -17 -35 -46z"/>
<path d="M5084 3273 c3 -10 10 -38 16 -62 6 -23 14 -41 17 -38 6 6 -25 117
-33 117 -3 0 -3 -8 0 -17z"/>
<path d="M3500 3110 c0 -33 4 -60 10 -60 6 0 10 27 10 60 0 33 -4 60 -10 60
-6 0 -10 -27 -10 -60z"/>
<path d="M5117 2885 c-3 -11 -8 -40 -11 -65 -5 -44 -5 -44 9 10 13 51 15 100
2 55z"/>
<path d="M3550 2779 c0 -26 31 -109 41 -109 12 0 12 -2 -7 56 -18 53 -34 78
-34 53z"/>
<path d="M4951 2491 c-19 -25 -27 -40 -17 -32 20 17 60 71 55 75 -2 2 -19 -17
-38 -43z"/>
<path d="M3720 2434 c0 -11 63 -94 72 -94 13 0 10 9 -22 56 -27 38 -50 56 -50
38z"/>
<path d="M4650 2250 c-30 -16 -51 -29 -47 -30 10 0 107 49 107 55 0 7 1 7 -60
-25z"/>
<path d="M3108 2213 c7 -3 16 -2 19 1 4 3 -2 6 -13 5 -11 0 -14 -3 -6 -6z"/>
<path d="M3158 2203 c7 -3 16 -2 19 1 4 3 -2 6 -13 5 -11 0 -14 -3 -6 -6z"/>
<path d="M8186 2161 c-27 -30 -9 -47 20 -20 13 12 21 26 18 30 -8 14 -19 11
-38 -10z"/>
<path d="M3458 2153 c6 -2 18 -2 25 0 6 3 1 5 -13 5 -14 0 -19 -2 -12 -5z"/>
<path d="M3533 2143 c9 -2 23 -2 30 0 6 3 -1 5 -18 5 -16 0 -22 -2 -12 -5z"/>
<path d="M3977 2143 c-4 -6 13 -29 37 -52 24 -24 46 -39 49 -34 4 6 -13 29
-37 52 -24 24 -46 39 -49 34z"/>
<path d="M4318 2143 c7 -3 16 -2 19 1 4 3 -2 6 -13 5 -11 0 -14 -3 -6 -6z"/>
<path d="M4253 2133 c9 -2 25 -2 35 0 9 3 1 5 -18 5 -19 0 -27 -2 -17 -5z"/>
<path d="M3853 2123 c9 -2 23 -2 30 0 6 3 -1 5 -18 5 -16 0 -22 -2 -12 -5z"/>
<path d="M7949 1947 c-68 -53 -72 -58 -61 -69 8 -8 23 -1 57 26 25 21 43 42
40 47 -8 12 -17 11 -36 -4z"/>
<path d="M4265 1891 c-2 -5 12 -21 33 -37 20 -15 42 -31 49 -36 6 -5 14 -5 17
1 3 5 -16 25 -44 45 -27 19 -52 32 -55 27z"/>
<path d="M7602 1706 c-37 -23 -49 -35 -41 -43 8 -8 23 -4 55 14 50 28 56 34
46 50 -5 8 -24 1 -60 -21z"/>
<path d="M4590 1670 c0 -5 22 -21 50 -35 55 -28 60 -29 60 -15 0 5 -22 21 -50
35 -55 28 -60 29 -60 15z"/>
<path d="M7252 1529 c-26 -11 -42 -24 -39 -31 5 -16 9 -15 70 11 27 12 45 25
42 31 -9 14 -23 12 -73 -11z"/>
<path d="M4940 1500 c0 -10 80 -50 101 -50 21 0 6 21 -24 34 -58 24 -77 28
-77 16z"/>
<path d="M6893 1402 c-30 -8 -53 -21 -53 -28 0 -17 0 -17 66 2 33 9 54 21 54
30 0 16 1 16 -67 -4z"/>
<path d="M5310 1375 c0 -14 97 -42 107 -31 10 10 -2 16 -56 31 -42 11 -51 11
-51 0z"/>
<path d="M6513 1321 c-82 -14 -71 -37 12 -26 38 4 55 11 55 21 0 15 -2 15 -67
5z"/>
<path d="M5690 1301 c0 -12 23 -19 74 -23 57 -4 57 18 0 26 -62 8 -74 8 -74
-3z"/>
<path d="M6077 1283 c-17 -17 -2 -23 53 -23 47 0 60 3 60 15 0 11 -13 15 -53
15 -30 0 -57 -3 -60 -7z"/>
</g>
</svg>
