<svg width="40" height="40" viewBox="0 0 40 40" fill="none" xmlns="http://www.w3.org/2000/svg">
<g clip-path="url(#clip0_25_191)">
<path d="M-8.46353e-05 5.00004C-8.46353e-05 4.08004 0.746582 3.33338 1.66658 3.33338H2.24658C3.78992 3.33338 5.33658 2.96838 6.71825 2.27838L9.52158 0.876709C10.6699 0.303376 11.9532 0.00170898 13.2332 0.00170898C15.3682 0.00170898 17.3532 0.770042 18.8832 2.16504L20.0499 3.22838L21.0799 2.25838C23.5549 -0.0732911 27.4283 -0.646624 30.4783 0.876709L33.2816 2.27838C34.6632 2.97004 36.2099 3.33338 37.7533 3.33338H38.3332C39.2533 3.33338 39.9999 4.08004 39.9999 5.00004C39.9999 5.92004 39.2533 6.66671 38.3332 6.66671H37.7533C35.6949 6.66671 33.6332 6.18004 31.7899 5.26004L28.9866 3.85838C27.1632 2.94838 24.8432 3.29004 23.3632 4.68338L15.5216 12.065C14.9249 12.6634 14.7849 13.655 15.2416 14.29C15.5399 14.705 15.9782 14.955 16.4732 14.995C16.9599 15.0417 17.4416 14.86 17.7866 14.5117L24.7432 7.85338C25.4082 7.21838 26.4632 7.24004 27.0999 7.90504C27.7366 8.57004 27.7132 9.62504 27.0483 10.2617L24.1032 13.08L25.9966 14.5C26.7332 15.0517 26.8816 16.0967 26.3299 16.8334C26.0032 17.27 25.5016 17.5 24.9949 17.5C24.6482 17.5 24.2966 17.3917 23.9966 17.1667L21.6632 15.4167L20.1182 16.895C19.1999 17.8134 17.9316 18.3334 16.6116 18.3334C16.4766 18.3334 16.3416 18.3284 16.2049 18.3167C14.7416 18.1984 13.4032 17.44 12.5366 16.235C11.1282 14.2784 11.4132 11.4567 13.1999 9.67004L17.6116 5.51671L16.6349 4.62671C15.1049 3.23338 12.7199 2.99838 11.0082 3.85671L8.20658 5.25838C6.36491 6.17838 4.30325 6.66504 2.24325 6.66504H1.66325C0.743249 6.66504 -0.00341797 5.91838 -0.00341797 4.99838L-8.46353e-05 5.00004ZM39.9999 30C39.9999 35.515 35.5149 40 29.9999 40C24.4849 40 19.9999 35.515 19.9999 30C19.9999 24.485 24.4849 20 29.9999 20C35.5149 20 39.9999 24.485 39.9999 30ZM36.6666 30C36.6666 26.3234 33.6766 23.3334 29.9999 23.3334C26.3232 23.3334 23.3332 26.3234 23.3332 30C23.3332 33.6767 26.3232 36.6667 29.9999 36.6667C33.6766 36.6667 36.6666 33.6767 36.6666 30ZM8.66658 24C6.65991 22.495 4.17492 21.6667 1.66658 21.6667C0.746582 21.6667 -8.46353e-05 22.4117 -8.46353e-05 23.3334C-8.46353e-05 24.255 0.746582 25 1.66658 25C3.45825 25 5.23491 25.5917 6.66658 26.6667L13.9999 32.1667C14.2999 32.3917 14.6516 32.5 14.9982 32.5C15.5049 32.5 16.0049 32.27 16.3332 31.8334C16.8866 31.0984 16.7366 30.0534 15.9999 29.5017L8.66658 24.0017V24ZM32.1782 27.13L29.2349 29.955C29.1766 30.0134 29.0849 30.0134 29.0266 29.955L27.5299 28.49C26.8716 27.8467 25.8199 27.8567 25.1716 28.5167C24.5282 29.175 24.5399 30.2284 25.1966 30.8734L26.6933 32.3384C27.3682 32.9984 28.2533 33.3284 29.1366 33.3284C30.0199 33.3284 30.8966 33 31.5599 32.345L34.4866 29.535C35.1499 28.8967 35.1733 27.8417 34.5349 27.1784C33.8983 26.5117 32.8432 26.4934 32.1782 27.13Z" fill="#FF0000"/>
</g>
<defs>
<clipPath id="clip0_25_191">
<rect width="40" height="40" fill="white"/>
</clipPath>
</defs>
</svg>
