<svg width="40" height="40" viewBox="0 0 40 40" fill="none" xmlns="http://www.w3.org/2000/svg">
<g clip-path="url(#clip0_25_193)">
<path d="M35.0918 13.0233C29.1885 2.34 11.8635 0 11.8635 0C11.8635 0 19.8601 8.9 9.64012 15.945C3.18179 20.3883 0.623452 26.1617 3.39012 32.4683C5.50679 37.3 9.99012 39.2617 14.8251 40C13.5835 37.61 13.2718 34.1583 14.1901 30.62C14.2818 30.2667 14.3835 29.8967 14.5001 29.5617C15.8551 31.6583 18.0785 32.805 20.2485 32.275C23.2201 31.5683 24.9635 27.9733 24.1518 24.2783C23.9668 23.4767 23.6651 22.7067 23.2585 21.9917C23.3751 22.02 23.4918 22.03 23.6118 22.07C27.3201 23.1283 29.1135 28.6733 27.6168 34.4617C27.1735 36.215 26.4251 37.8767 25.4068 39.37C31.7735 37.32 36.0085 32.185 37.1735 27.61C38.4018 22.8483 37.4701 17.3 35.0918 13.0233Z" fill="#FF0000"/>
</g>
<defs>
<clipPath id="clip0_25_193">
<rect width="40" height="40" fill="white"/>
</clipPath>
</defs>
</svg>
