<svg width="40" height="40" viewBox="0 0 40 40" fill="none" xmlns="http://www.w3.org/2000/svg">
<g clip-path="url(#clip0_26_2)">
<path d="M30.0001 14.1666C30.0001 15.2717 29.5611 16.3315 28.7797 17.1129C27.9983 17.8943 26.9385 18.3333 25.8334 18.3333C24.7284 18.3333 23.6686 17.8943 22.8872 17.1129C22.1058 16.3315 21.6668 15.2717 21.6668 14.1666C21.6668 13.0616 22.1058 12.0018 22.8872 11.2204C23.6686 10.439 24.7284 9.99997 25.8334 9.99997C26.9385 9.99997 27.9983 10.439 28.7797 11.2204C29.5611 12.0018 30.0001 13.0616 30.0001 14.1666ZM29.9901 25.61C29.8986 28.2581 29.2374 30.8554 28.0518 33.225C26.9593 35.2909 25.319 37.0161 23.3107 38.2112C21.3023 39.4063 19.0037 40.0252 16.6668 40H15.0001V30.8333C14.9927 29.2885 14.3757 27.8091 13.2833 26.7167C12.191 25.6244 10.7116 25.0074 9.16678 25H0.000110682V23.3333C-0.0251199 20.9964 0.593767 18.6977 1.78888 16.6894C2.98399 14.6811 4.70915 13.0408 6.77511 11.9483C9.14472 10.7626 11.742 10.1015 14.3901 10.01C16.8182 6.8737 19.9364 4.33919 23.5026 2.60318C27.0689 0.867179 30.9872 -0.0236099 34.9534 -3.21545e-05C35.6134 -0.00420251 36.2677 0.121939 36.8789 0.371161C37.49 0.620382 38.0459 0.987782 38.5148 1.45229C38.9836 1.91681 39.3562 2.46929 39.611 3.07808C39.8659 3.68687 39.9981 4.33998 40.0001 4.99997C40.0283 8.97366 39.1399 12.9003 37.4038 16.4748C35.6677 20.0493 33.1308 23.1754 29.9901 25.61ZM3.47344 21.6666H7.24344C8.48118 18.9099 9.93517 16.2555 11.5918 13.7283C10.4411 13.996 9.32617 14.3988 8.27011 14.9283C7.00001 15.599 5.90461 16.5578 5.07167 17.7279C4.23872 18.898 3.69137 20.247 3.47344 21.6666ZM26.2718 28.4083C23.7445 30.0649 21.0901 31.5189 18.3334 32.7566V36.5266C19.7531 36.3087 21.102 35.7614 22.2722 34.9284C23.4423 34.0955 24.4011 33.0001 25.0718 31.73C25.6013 30.6739 26.0041 29.5589 26.2718 28.4083ZM36.6668 4.9533C36.6546 4.51941 36.4737 4.10738 36.1624 3.80484C35.8512 3.50231 35.4342 3.33313 35.0001 3.3333C26.4001 3.5783 20.5834 6.8733 14.9701 14.7033C13.4037 16.9586 12.0262 19.3395 10.8518 21.8216C12.6716 22.1606 14.3462 23.0426 15.6552 24.3515C16.9642 25.6605 17.8462 27.3351 18.1851 29.155C20.6672 27.9805 23.0481 26.6031 25.3034 25.0366C33.1268 19.4166 36.4218 13.6 36.6668 4.9533ZM10.2034 29.7983C11.1347 30.7391 11.6571 32.0095 11.6571 33.3333C11.6571 34.6571 11.1347 35.9274 10.2034 36.8683C8.69178 38.3783 4.16678 39.31 2.29011 39.6416L-0.0532227 40.0533L0.358444 37.71C0.691777 35.8333 1.62178 31.3083 3.13178 29.7966C4.08469 28.8877 5.35108 28.3808 6.66795 28.3811C7.98481 28.3814 9.25096 28.889 10.2034 29.7983ZM8.33344 33.3333C8.33404 33.1144 8.29118 32.8975 8.20736 32.6952C8.12353 32.4929 8.00041 32.3093 7.84511 32.155C7.53256 31.8425 7.10872 31.667 6.66678 31.667C6.22484 31.667 5.80099 31.8425 5.48844 32.155C4.85301 33.3021 4.40673 34.5441 4.16678 35.8333C5.45646 35.5923 6.69899 35.1455 7.84678 34.51C8.00157 34.3557 8.12428 34.1723 8.2078 33.9703C8.29133 33.7683 8.33403 33.5518 8.33344 33.3333Z" fill="#FF0000"/>
</g>
<defs>
<clipPath id="clip0_26_2">
<rect width="40" height="40" fill="white"/>
</clipPath>
</defs>
</svg>
